<svg width="500" height="230" viewBox="0 0 500 230"
  xmlns="http://www.w3.org/2000/svg">
  <defs>
    <linearGradient id="gb" x1="0" y1="0" x2="1" y2="0">
      <stop offset="0%"   stop-color="#14532d"/>
      <stop offset="100%" stop-color="#166534"/>
    </linearGradient>
    <linearGradient id="bg" x1="0" y1="0" x2="0" y2="1">
      <stop offset="0%"   stop-color="#1c2333"/>
      <stop offset="100%" stop-color="#161b27"/>
    </linearGradient>
    <linearGradient id="cg" x1="0" y1="0" x2="1" y2="1">
      <stop offset="0%"   stop-color="#4ade80"/>
      <stop offset="100%" stop-color="#16a34a"/>
    </linearGradient>
  </defs>

  <!-- Card -->
  <rect width="500" height="230" rx="12" fill="url(#bg)" stroke="#166534" stroke-width="1.5"/>
  <rect width="500" height="7"   rx="3.5" fill="url(#gb)"/>

  <!-- Header -->
  <circle cx="30" cy="36" r="9" fill="#16a34a"/>
  <text x="30" y="41" font-family="Segoe UI,sans-serif" font-size="11"
        font-weight="900" fill="#fff" text-anchor="middle">GFG</text>
  <text x="50" y="38" font-family="Segoe UI,sans-serif" font-size="14"
        font-weight="700" fill="#f1f5f9" letter-spacing="0.3">GeeksForGeeks Stats</text>
  <text x="50" y="54" font-family="Segoe UI,sans-serif" font-size="10" fill="#64748b">@jharshavardhan</text>
  <line x1="16" y1="66" x2="484" y2="66" stroke="#1e293b" stroke-width="1.2"/>

  <!-- Circle -->
  <circle cx="75" cy="126" r="40" fill="none" stroke="#1e293b" stroke-width="6"/>
  <circle cx="75" cy="126" r="40" fill="none" stroke="url(#cg)"
          stroke-width="6" stroke-linecap="round"
          stroke-dasharray="100.5 251.3"
          stroke-dashoffset="0"
          transform="rotate(-90 75 126)"/>
  <text x="75" y="131" font-family="Segoe UI,sans-serif" font-size="22"
        font-weight="800" fill="#f1f5f9" text-anchor="middle">100</text>
  <text x="75" y="178" font-family="Segoe UI,sans-serif" font-size="9"
        fill="#64748b" text-anchor="middle" letter-spacing="1">SOLVED</text>

  <!-- Stats below circle -->
  <text x="16" y="198" font-family="Segoe UI,sans-serif" font-size="9" fill="#64748b" letter-spacing="0.5">SCORE</text>
  <text x="16" y="213" font-family="Segoe UI,sans-serif" font-size="17" font-weight="700" fill="#4ade80">273</text>

  <text x="82" y="198" font-family="Segoe UI,sans-serif" font-size="9" fill="#64748b" letter-spacing="0.5">RANK</text>
  <text x="82" y="213" font-family="Segoe UI,sans-serif" font-size="17" font-weight="700" fill="#fbbf24">#5</text>

  <text x="16" y="225" font-family="Segoe UI,sans-serif" font-size="9" fill="#64748b" letter-spacing="0.5">STREAK · 13 days 🔥</text>

  <!-- Divider -->
  <line x1="145" y1="74" x2="145" y2="222" stroke="#1e293b" stroke-width="1.2"/>

  <!-- Breakdown header -->
  <text x="163" y="88" font-family="Segoe UI,sans-serif" font-size="9"
        fill="#64748b" letter-spacing="1.2">DIFFICULTY BREAKDOWN</text>

  <!-- School -->
  <text x="163" y="107" font-family="Segoe UI,sans-serif" font-size="11" fill="#7dd3fc">School</text>
  <text x="484" y="107" font-family="Segoe UI,sans-serif" font-size="11" fill="#7dd3fc" text-anchor="end">0</text>
  <rect x="163" y="111" width="230" height="5" rx="2.5" fill="#1e293b"/>
  <rect x="163" y="111" width="4" height="5" rx="2.5" fill="#7dd3fc"/>

  <!-- Basic -->
  <text x="163" y="129" font-family="Segoe UI,sans-serif" font-size="11" fill="#86efac">Basic</text>
  <text x="484" y="129" font-family="Segoe UI,sans-serif" font-size="11" fill="#86efac" text-anchor="end">17</text>
  <rect x="163" y="133" width="230" height="5" rx="2.5" fill="#1e293b"/>
  <rect x="163" y="133" width="78" height="5" rx="2.5" fill="#86efac"/>

  <!-- Easy -->
  <text x="163" y="151" font-family="Segoe UI,sans-serif" font-size="11" fill="#4ade80">Easy</text>
  <text x="484" y="151" font-family="Segoe UI,sans-serif" font-size="11" fill="#4ade80" text-anchor="end">33</text>
  <rect x="163" y="155" width="230" height="5" rx="2.5" fill="#1e293b"/>
  <rect x="163" y="155" width="76" height="5" rx="2.5" fill="#4ade80"/>

  <!-- Medium -->
  <text x="163" y="173" font-family="Segoe UI,sans-serif" font-size="11" fill="#fb923c">Medium</text>
  <text x="484" y="173" font-family="Segoe UI,sans-serif" font-size="11" fill="#fb923c" text-anchor="end">42</text>
  <rect x="163" y="177" width="230" height="5" rx="2.5" fill="#1e293b"/>
  <rect x="163" y="177" width="64" height="5" rx="2.5" fill="#fb923c"/>

  <!-- Hard -->
  <text x="163" y="195" font-family="Segoe UI,sans-serif" font-size="11" fill="#f87171">Hard</text>
  <text x="484" y="195" font-family="Segoe UI,sans-serif" font-size="11" fill="#f87171" text-anchor="end">8</text>
  <rect x="163" y="199" width="230" height="5" rx="2.5" fill="#1e293b"/>
  <rect x="163" y="199" width="37" height="5" rx="2.5" fill="#f87171"/>

  <!-- Footer -->
  <text x="484" y="222" font-family="Segoe UI,sans-serif" font-size="8"
        fill="#334155" text-anchor="end">Updated: 23 Apr 2026, 21:47 UTC</text>
</svg>