<svg width="495" height="220" viewBox="0 0 495 220" fill="none" xmlns="http://www.w3.org/2000/svg">
  <!-- Background -->
  <rect width="495" height="220" rx="10" fill="#282a36" stroke="#44475a" stroke-width="1"/>

  <!-- Header bar -->
  <rect width="495" height="8" rx="4" fill="#2F8D46" y="0"/>

  <!-- GFG Logo circle -->
  <circle cx="40" cy="42" r="16" fill="#2F8D46" opacity="0.2"/>
  <text x="40" y="47" font-family="Segoe UI, sans-serif" font-size="14" font-weight="bold"
        fill="#2F8D46" text-anchor="middle">GFG</text>

  <!-- Title -->
  <text x="68" y="36" font-family="Segoe UI, sans-serif" font-size="15" font-weight="bold"
        fill="#f8f8f2">JAGANNATI_HARSHAVARDHAN</text>
  <text x="68" y="52" font-family="Segoe UI, sans-serif" font-size="11"
        fill="#6272a4">GeeksForGeeks Stats</text>

  <!-- Divider -->
  <line x1="20" y1="65" x2="475" y2="65" stroke="#44475a" stroke-width="1"/>

  <!-- Left column: Total + Score -->
  <text x="40" y="95" font-family="Segoe UI, sans-serif" font-size="11" fill="#6272a4">SOLVED</text>
  <text x="40" y="120" font-family="Segoe UI, sans-serif" font-size="36" font-weight="bold" fill="#f8f8f2">N/A</text>

  <text x="40" y="148" font-family="Segoe UI, sans-serif" font-size="11" fill="#6272a4">SCORE</text>
  <text x="40" y="166" font-family="Segoe UI, sans-serif" font-size="20" font-weight="bold" fill="#50fa7b">N/A</text>

  <text x="40" y="186" font-family="Segoe UI, sans-serif" font-size="11" fill="#6272a4">STREAK</text>
  <text x="40" y="204" font-family="Segoe UI, sans-serif" font-size="13" font-weight="bold" fill="#ffb86c">N/A days 🔥</text>

  <!-- Vertical divider -->
  <line x1="160" y1="75" x2="160" y2="210" stroke="#44475a" stroke-width="1"/>

  <!-- Right column: Difficulty bars -->
  <text x="180" y="90" font-family="Segoe UI, sans-serif" font-size="11" fill="#6272a4">DIFFICULTY BREAKDOWN</text>

  <!-- Basic -->
  <text x="180" y="113" font-family="Segoe UI, sans-serif" font-size="12" fill="#f8f8f2">Basic</text>
  <text x="460" y="113" font-family="Segoe UI, sans-serif" font-size="12" fill="#f8f8f2" text-anchor="end">N/A</text>
  <rect x="180" y="117" width="270" height="6" rx="3" fill="#44475a"/>
  <rect x="180" y="117" width="0" height="6" rx="3" fill="#8be9fd"/>

  <!-- Easy -->
  <text x="180" y="143" font-family="Segoe UI, sans-serif" font-size="12" fill="#f8f8f2">Easy</text>
  <text x="460" y="143" font-family="Segoe UI, sans-serif" font-size="12" fill="#f8f8f2" text-anchor="end">N/A</text>
  <rect x="180" y="147" width="270" height="6" rx="3" fill="#44475a"/>
  <rect x="180" y="147" width="0" height="6" rx="3" fill="#50fa7b"/>

  <!-- Medium -->
  <text x="180" y="173" font-family="Segoe UI, sans-serif" font-size="12" fill="#f8f8f2">Medium</text>
  <text x="460" y="173" font-family="Segoe UI, sans-serif" font-size="12" fill="#f8f8f2" text-anchor="end">N/A</text>
  <rect x="180" y="177" width="270" height="6" rx="3" fill="#44475a"/>
  <rect x="180" y="177" width="0" height="6" rx="3" fill="#ffb86c"/>

  <!-- Hard -->
  <text x="180" y="203" font-family="Segoe UI, sans-serif" font-size="12" fill="#f8f8f2">Hard</text>
  <text x="460" y="203" font-family="Segoe UI, sans-serif" font-size="12" fill="#f8f8f2" text-anchor="end">N/A</text>
  <rect x="180" y="207" width="270" height="6" rx="3" fill="#44475a"/>
  <rect x="180" y="207" width="0" height="6" rx="3" fill="#ff5555"/>
</svg>